<svg height="682pt" viewBox="-21 -21 682 682.66665" width="682pt" xmlns="http://www.w3.org/2000/svg"><path d="m487.464844 89.414062h-468.382813c-7.027343 0-13.460937 3.929688-16.675781 10.179688-3.210938 6.25-2.660156 13.769531 1.433594 19.484375l57.875 80.859375v345.085938c0 52.367187 43.367187 94.976562 96.679687 94.976562h295.140625c53.316406 0 96.683594-42.609375 96.683594-94.976562v-393.816407c0-34.074219-28.148438-61.792969-62.753906-61.792969zm-57.707032 368.984376h-274.410156c-10.351562 0-18.75-8.394532-18.75-18.75 0-10.355469 8.398438-18.75 18.75-18.75h274.402344c10.359375 0 18.75 8.394531 18.75 18.75 0 10.355468-8.390625 18.75-18.742188 18.75zm-293.160156-93.75c0-10.355469 8.398438-18.75 18.75-18.75h244.867188c10.355468 0 18.75 8.394531 18.75 18.75 0 10.355468-8.394532 18.75-18.75 18.75h-244.867188c-10.351562 0-18.75-8.394532-18.75-18.75zm319.0625-56.25h-300.3125c-10.351562 0-18.75-8.394532-18.75-18.75 0-10.355469 8.398438-18.75 18.75-18.75h300.3125c10.355469 0 18.75 8.394531 18.75 18.75 0 10.355468-8.394531 18.75-18.75 18.75zm0 0"/><path d="m537.277344 0h-288.769532c-38.875 0-72.441406 22.667969-87.785156 55.246094h354.574219c38.730469 0 70.246094 31.023437 70.246094 69.164062v416.785156c32.386719-15.359374 54.789062-47.953124 54.789062-85.589843v-354.394531c0-55.804688-46.230469-101.210938-103.054687-101.210938zm0 0"/></svg>