<?xml version="1.0" encoding="iso-8859-1"?>
<!-- Generator: Adobe Illustrator 16.0.0, SVG Export Plug-In . SVG Version: 6.00 Build 0)  -->
<!DOCTYPE svg PUBLIC "-//W3C//DTD SVG 1.1//EN" "http://www.w3.org/Graphics/SVG/1.1/DTD/svg11.dtd">
<svg version="1.1" id="Capa_1" xmlns="http://www.w3.org/2000/svg" xmlns:xlink="http://www.w3.org/1999/xlink" x="0px" y="0px"
	 width="124.668px" height="124.669px" viewBox="0 0 124.668 124.669" style="enable-background:new 0 0 124.668 124.669;"
	 xml:space="preserve">
<g>
	<path d="M116.78,83.758c4.676-6.658,5.641-16.318-0.555-21.903c2.311-3.593,4.566-8.724,3.397-13.995
		c-1.33-5.999-7.718-8.303-11.408-9.143c-3.081-0.701-6.368-1.042-10.051-1.042c-6.292,0-12.769,1.032-18.468,2.07
		c-0.088-10.108-1.725-18.862-4.867-26.035C72.375,8.106,65.053,0,58.238,0c-3.029,0-5.582,1.522-7.589,4.525
		c-2.22,3.321-2.631,7.695-2.994,11.554l-0.083,0.87c-0.277,2.847-0.448,5.741-0.612,8.539c-0.175,2.969-0.355,6.039-0.663,9.039
		c-0.496,4.837-1.469,11.029-4.61,16.024C39.42,54.155,35.488,55.983,30,55.984c-0.221,0-0.441-0.003-0.663-0.009v-4.96H4.088
		v70.736h25.25v-4.101c11.749,0.449,23.598,2.048,35.068,3.596c8.561,1.154,17.414,2.35,26.174,3.061l0.288,0.023
		c2.044,0.167,4.157,0.339,6.228,0.339c0,0,0,0,0.002,0c3.643,0,8.334-0.45,12.307-3.955c4.436-3.915,4.771-11.075,3.131-16.655
		C117.229,99.014,120.636,91.223,116.78,83.758z M12.794,66.212v-7.757h7.757v7.757H12.794z M105.485,100.293
		c-0.912,0.812-1.547,2.521-0.98,3.868c1.234,2.942,1.861,7.143,0.477,9.89c-0.686,1.36-1.83,2.245-3.399,2.627
		c-1.626,0.397-3.45,0.59-5.575,0.59c-3.404,0-6.947-0.494-10.373-0.974c-1.363-0.19-2.689-0.375-3.956-0.522
		c-5.335-0.614-10.761-1.345-16.009-2.051c-11.873-1.597-24.141-3.248-36.332-3.701V63.59c0.299,0.008,0.593,0.014,0.884,0.014
		c21.603,0,23.277-23.348,24.5-40.395c0.173-2.422,0.338-4.71,0.546-6.852l0.071-0.794c0.212-2.427,0.567-6.489,2.389-7.688
		c0.399-0.263,0.815-0.39,1.271-0.39c3.084,0,6.993,5.521,8.303,8.041c3.58,6.883,5.162,16.564,4.703,28.775
		c-0.037,0.993,0.299,1.888,0.972,2.588c0.918,0.954,2.396,1.401,3.775,1.145c6.973-1.305,14.182-2.654,21.33-2.654
		c2.667,0,5.1,0.186,7.434,0.568c4.288,0.702,6.58,2.117,6.811,4.206c0.254,2.301-0.906,4.709-2.074,6.762
		c-0.703,1.237-2.002,3.033-2.216,3.286c-0.841,0.995-1.206,2.437-0.931,3.674c0.23,1.041,0.885,1.856,1.842,2.299
		c2.187,1.011,3.504,2.636,3.914,4.832c0.582,3.101-0.811,7.028-3.461,9.774c-1.094,1.133-1.604,3.252-0.523,4.701
		C113.471,91.639,108.723,97.404,105.485,100.293z"/>
</g>
<g>
</g>
<g>
</g>
<g>
</g>
<g>
</g>
<g>
</g>
<g>
</g>
<g>
</g>
<g>
</g>
<g>
</g>
<g>
</g>
<g>
</g>
<g>
</g>
<g>
</g>
<g>
</g>
<g>
</g>
</svg>
